<?xml version="1.0" encoding="utf-8"?>
<svg version="1.1" xmlns:xlink="http://www.w3.org/1999/xlink" width="190px" height="55px" xmlns="http://www.w3.org/2000/svg">
  <defs>
    <filter x="98px" y="442px" width="190px" height="55px" filterUnits="userSpaceOnUse" id="filter442">
      <feOffset dx="5" dy="5" in="SourceAlpha" result="shadowOffsetInner" />
      <feGaussianBlur stdDeviation="2.5" in="shadowOffsetInner" result="shadowGaussian" />
      <feComposite in2="shadowGaussian" operator="atop" in="SourceAlpha" result="shadowComposite" />
      <feColorMatrix type="matrix" values="0 0 0 0 0  0 0 0 0 0  0 0 0 0 0  0 0 0 0.349019607843137 0  " in="shadowComposite" />
    </filter>
    <g id="widget443">
      <path d="M 99.5 462  A 18.5 18.5 0 0 1 118 443.5 L 258 443.5  A 18.5 18.5 0 0 1 276.5 462 L 276.5 467  A 18.5 18.5 0 0 1 258 485.5 L 118 485.5  A 18.5 18.5 0 0 1 99.5 467 L 99.5 462  Z " fill-rule="nonzero" fill="#ffffff" stroke="none" fill-opacity="0.996078431372549" />
      <path d="M 99 462  A 19 19 0 0 1 118 443 L 258 443  A 19 19 0 0 1 277 462 L 277 467  A 19 19 0 0 1 258 486 L 118 486  A 19 19 0 0 1 99 467 L 99 462  Z " stroke-width="2" stroke="#2867b2" fill="none" />
    </g>
  </defs>
  <g transform="matrix(1 0 0 1 -98 -442 )">
    <use xlink:href="#widget443" filter="url(#filter442)" />
    <use xlink:href="#widget443" />
  </g>
</svg>