<?xml version="1.0" encoding="utf-8"?>
<svg version="1.1" xmlns:xlink="http://www.w3.org/1999/xlink" width="190px" height="55px" xmlns="http://www.w3.org/2000/svg">
  <defs>
    <filter x="98px" y="380px" width="190px" height="55px" filterUnits="userSpaceOnUse" id="filter440">
      <feOffset dx="5" dy="5" in="SourceAlpha" result="shadowOffsetInner" />
      <feGaussianBlur stdDeviation="2.5" in="shadowOffsetInner" result="shadowGaussian" />
      <feComposite in2="shadowGaussian" operator="atop" in="SourceAlpha" result="shadowComposite" />
      <feColorMatrix type="matrix" values="0 0 0 0 0  0 0 0 0 0  0 0 0 0 0  0 0 0 0.349019607843137 0  " in="shadowComposite" />
    </filter>
    <g id="widget441">
      <path d="M 99.5 400  A 18.5 18.5 0 0 1 118 381.5 L 258 381.5  A 18.5 18.5 0 0 1 276.5 400 L 276.5 405  A 18.5 18.5 0 0 1 258 423.5 L 118 423.5  A 18.5 18.5 0 0 1 99.5 405 L 99.5 400  Z " fill-rule="nonzero" fill="#ffffff" stroke="none" fill-opacity="0.996078431372549" />
      <path d="M 99 400  A 19 19 0 0 1 118 381 L 258 381  A 19 19 0 0 1 277 400 L 277 405  A 19 19 0 0 1 258 424 L 118 424  A 19 19 0 0 1 99 405 L 99 400  Z " stroke-width="2" stroke="#4267b2" fill="none" />
    </g>
  </defs>
  <g transform="matrix(1 0 0 1 -98 -380 )">
    <use xlink:href="#widget441" filter="url(#filter440)" />
    <use xlink:href="#widget441" />
  </g>
</svg>