<?xml version="1.0" encoding="utf-8"?>
<svg version="1.1" xmlns:xlink="http://www.w3.org/1999/xlink" width="190px" height="55px" xmlns="http://www.w3.org/2000/svg">
  <defs>
    <filter x="98px" y="274px" width="190px" height="55px" filterUnits="userSpaceOnUse" id="filter438">
      <feOffset dx="5" dy="5" in="SourceAlpha" result="shadowOffsetInner" />
      <feGaussianBlur stdDeviation="2.5" in="shadowOffsetInner" result="shadowGaussian" />
      <feComposite in2="shadowGaussian" operator="atop" in="SourceAlpha" result="shadowComposite" />
      <feColorMatrix type="matrix" values="0 0 0 0 0  0 0 0 0 0  0 0 0 0 0  0 0 0 0.349019607843137 0  " in="shadowComposite" />
    </filter>
    <g id="widget439">
      <path d="M 99.5 294  A 18.5 18.5 0 0 1 118 275.5 L 258 275.5  A 18.5 18.5 0 0 1 276.5 294 L 276.5 299  A 18.5 18.5 0 0 1 258 317.5 L 118 317.5  A 18.5 18.5 0 0 1 99.5 299 L 99.5 294  Z " fill-rule="nonzero" fill="#ff9f1c" stroke="none" fill-opacity="0.996078431372549" />
      <path d="M 99 294  A 19 19 0 0 1 118 275 L 258 275  A 19 19 0 0 1 277 294 L 277 299  A 19 19 0 0 1 258 318 L 118 318  A 19 19 0 0 1 99 299 L 99 294  Z " stroke-width="2" stroke="#ff9f1c" fill="none" />
    </g>
  </defs>
  <g transform="matrix(1 0 0 1 -98 -274 )">
    <use xlink:href="#widget439" filter="url(#filter438)" />
    <use xlink:href="#widget439" />
  </g>
</svg>