<?xml version="1.0" encoding="utf-8"?>
<svg version="1.1" xmlns:xlink="http://www.w3.org/1999/xlink" width="34px" height="34px" xmlns="http://www.w3.org/2000/svg">
  <g transform="matrix(1 0 0 1 -321 -18 )">
    <path d="M 33.1986531986532 25.4141414141414  C 33.7328843995511 25.9483726150393  34 26.5970819304153  34 27.3602693602694  C 34 28.1234567901235  33.7328843995511 28.7721661054994  33.1986531986532 29.3063973063973  L 29.3063973063973 33.1986531986532  C 28.7721661054994 33.7328843995511  28.1234567901235 34  27.3602693602694 34  C 26.5970819304153 34  25.9483726150393 33.7328843995511  25.4141414141414 33.1986531986532  L 17 24.7845117845118  L 8.58585858585859 33.1986531986532  C 8.05162738496072 33.7328843995511  7.40291806958474 34  6.63973063973064 34  C 5.87654320987654 34  5.22783389450056 33.7328843995511  4.69360269360269 33.1986531986532  L 0.801346801346801 29.3063973063973  C 0.267115600448934 28.7721661054994  0 28.1234567901235  0 27.3602693602694  C 0 26.5970819304153  0.267115600448934 25.9483726150393  0.801346801346801 25.4141414141414  L 9.21548821548821 17  L 0.801346801346801 8.58585858585858  C 0.267115600448934 8.05162738496072  0 7.40291806958474  0 6.63973063973064  C 0 5.87654320987654  0.267115600448934 5.22783389450056  0.801346801346801 4.69360269360269  L 4.69360269360269 0.801346801346801  C 5.22783389450056 0.267115600448933  5.87654320987654 0  6.63973063973064 0  C 7.40291806958474 0  8.05162738496072 0.267115600448933  8.58585858585859 0.801346801346801  L 17 9.21548821548822  L 25.4141414141414 0.801346801346801  C 25.9483726150393 0.267115600448933  26.5970819304153 0  27.3602693602694 0  C 28.1234567901235 0  28.7721661054994 0.267115600448933  29.3063973063973 0.801346801346801  L 33.1986531986532 4.69360269360269  C 33.7328843995511 5.22783389450056  34 5.87654320987654  34 6.63973063973064  C 34 7.40291806958474  33.7328843995511 8.05162738496072  33.1986531986532 8.58585858585858  L 24.7845117845118 17  L 33.1986531986532 25.4141414141414  Z " fill-rule="nonzero" fill="#797979" stroke="none" transform="matrix(1 0 0 1 321 18 )" />
  </g>
</svg>