<?xml version="1.0" encoding="utf-8"?>
<svg version="1.1" xmlns:xlink="http://www.w3.org/1999/xlink" width="34px" height="34px" xmlns="http://www.w3.org/2000/svg">
  <g transform="matrix(1 0 0 1 -320 -18 )">
    <path d="M 23.5806451612903 13.1612903225806  C 23.5806451612903 9.52822580645161  20.633064516129 6.58064516129032  17 6.58064516129032  C 13.366935483871 6.58064516129032  10.4193548387097 9.52822580645161  10.4193548387097 13.1612903225806  C 10.4193548387097 16.7943548387097  13.366935483871 19.741935483871  17 19.741935483871  C 20.633064516129 19.741935483871  23.5806451612903 16.7943548387097  23.5806451612903 13.1612903225806  Z M 20.2903225806452 13.1612903225806  C 20.2903225806452 14.9778225806452  18.8165322580645 16.4516129032258  17 16.4516129032258  C 15.1834677419355 16.4516129032258  13.7096774193548 14.9778225806452  13.7096774193548 13.1612903225806  C 13.7096774193548 11.3447580645161  15.1834677419355 9.87096774193548  17 9.87096774193548  C 18.8165322580645 9.87096774193548  20.2903225806452 11.3447580645161  20.2903225806452 13.1612903225806  Z M 34 17  C 34 7.60887096774194  26.3911290322581 0  17 0  C 7.60887096774194 0  0 7.60887096774194  0 17  C 0 26.3911290322581  7.60887096774194 34  17 34  C 26.3911290322581 34  34 26.3911290322581  34 17  Z M 25.9181451612903 27.391935483871  C 23.5189516129032 29.4552419354839  20.4068548387097 30.7096774193548  17 30.7096774193548  C 13.5931451612903 30.7096774193548  10.4810483870968 29.4552419354839  8.08185483870968 27.391935483871  C 9.10322580645161 25.8153225806452  10.8512096774194 24.7459677419355  12.8528225806452 24.6842741935484  C 14.2786290322581 25.1229838709677  15.6358870967742 25.3423387096774  17 25.3423387096774  C 18.3641129032258 25.3423387096774  19.7213709677419 25.1298387096774  21.1471774193548 24.6842741935484  C 23.1487903225806 24.7528225806452  24.8967741935484 25.8153225806452  25.9181451612903 27.391935483871  Z M 30.7096774193548 17  C 30.7096774193548 19.9612903225806  29.7568548387097 22.7032258064516  28.1528225806452 24.9447580645161  C 26.4802419354839 22.7923387096774  23.8959677419355 21.3870967741935  20.9483870967742 21.3870967741935  C 20.2491935483871 21.3870967741935  19.1661290322581 22.0451612903226  17 22.0451612903226  C 14.8407258064516 22.0451612903226  13.7508064516129 21.3870967741935  13.0516129032258 21.3870967741935  C 10.1108870967742 21.3870967741935  7.52661290322581 22.7923387096774  5.84717741935484 24.9447580645161  C 4.24314516129032 22.7032258064516  3.29032258064516 19.9612903225806  3.29032258064516 17  C 3.29032258064516 9.43911290322581  9.43911290322581 3.29032258064516  17 3.29032258064516  C 24.5608870967742 3.29032258064516  30.7096774193548 9.43911290322581  30.7096774193548 17  Z " fill-rule="nonzero" fill="#808080" stroke="none" transform="matrix(1 0 0 1 320 18 )" />
  </g>
</svg>